<svg width="123" height="29" viewBox="0 0 123 29" fill="none" xmlns="http://www.w3.org/2000/svg">
<path d="M9.44 28V4.4H0.16V-1.90735e-06H23.92V4.4H14.64V28H9.44ZM22.4562 28L35.0563 -1.90735e-06H40.1763L52.8163 28H47.3763L36.5363 2.76H38.6163L27.8163 28H22.4562ZM28.2563 21.52L29.6563 17.44H44.7763L46.1762 21.52H28.2563ZM56.3772 28V-1.90735e-06H61.5772V28H56.3772Z" fill="#323232"/>
<path d="M73.7906 21.4L73.5106 15.24L88.1906 -1.90735e-06H94.0306L81.8306 12.96L78.9506 16.12L73.7906 21.4ZM69.1506 28V-1.90735e-06H74.3506V28H69.1506ZM88.6706 28L77.9506 15.24L81.3906 11.44L94.7506 28H88.6706ZM109.941 28.4C106.101 28.4 103.087 27.32 100.901 25.16C98.7406 23 97.6606 19.88 97.6606 15.8V-1.90735e-06H102.861V15.6C102.861 18.48 103.474 20.5733 104.701 21.88C105.954 23.1867 107.714 23.84 109.981 23.84C112.247 23.84 113.994 23.1867 115.221 21.88C116.447 20.5733 117.061 18.48 117.061 15.6V-1.90735e-06H122.181V15.8C122.181 19.88 121.087 23 118.901 25.16C116.741 27.32 113.754 28.4 109.941 28.4Z" fill="#D0102E"/>
</svg>
