<svg width="184" height="43" viewBox="0 0 184 43" fill="none" xmlns="http://www.w3.org/2000/svg">
<path d="M14.16 42V6.6H0.24V-2.86102e-06H35.88V6.6H21.96V42H14.16ZM33.6844 42L52.5844 -2.86102e-06H60.2644L79.2244 42H71.0644L54.8044 4.14H57.9244L41.7244 42H33.6844ZM42.3844 32.28L44.4844 26.16H67.1644L69.2644 32.28H42.3844ZM84.5658 42V-2.86102e-06H92.3658V42H84.5658Z" fill="white"/>
<path d="M110.686 32.1L110.266 22.86L132.286 -2.86102e-06H141.046L122.746 19.44L118.426 24.18L110.686 32.1ZM103.726 42V-2.86102e-06H111.526V42H103.726ZM133.006 42L116.926 22.86L122.086 17.16L142.126 42H133.006ZM164.911 42.6C159.151 42.6 154.631 40.98 151.351 37.74C148.111 34.5 146.491 29.82 146.491 23.7V-2.86102e-06H154.291V23.4C154.291 27.72 155.211 30.86 157.051 32.82C158.931 34.78 161.571 35.76 164.971 35.76C168.371 35.76 170.991 34.78 172.831 32.82C174.671 30.86 175.591 27.72 175.591 23.4V-2.86102e-06H183.271V23.7C183.271 29.82 181.631 34.5 178.351 37.74C175.111 40.98 170.631 42.6 164.911 42.6Z" fill="#D0102E"/>
</svg>
