<svg width="103" height="46" viewBox="0 0 103 46" fill="none" xmlns="http://www.w3.org/2000/svg">
<path d="M39.1066 0.589123L25.6213 32.8529H16.8236L10.1873 7.10337C9.785 5.52121 9.43536 4.93895 8.21103 4.26993C6.20977 3.17965 2.90492 2.15998 0 1.52567L0.195941 0.589123H14.3601C16.1626 0.589123 17.7856 1.79279 18.1984 3.87691L21.7048 22.5485L30.3617 0.589123H39.1066ZM50.9999 0.589123L44.1186 32.8529H35.7949L42.677 0.589123H51.0003H50.9999ZM73.5778 22.3189C73.6124 13.8052 61.8398 13.3327 61.9167 9.52886C61.9448 8.3724 63.0432 7.1413 65.4476 6.82656C66.6386 6.67202 69.929 6.54895 73.6559 8.27112L75.114 1.42519C73.1115 0.698877 70.5345 0 67.329 0C59.1011 0 53.3134 4.38291 53.2671 10.6639C53.2132 15.3099 57.4012 17.8992 60.5507 19.4467C63.7948 21.0268 64.8828 22.0425 64.8679 23.4548C64.8445 25.6196 62.2768 26.5779 59.8897 26.6134C55.7037 26.68 53.2772 25.4788 51.3415 24.5745L49.8307 31.6472C51.778 32.5422 55.3669 33.3197 59.0842 33.3593C67.8311 33.3593 73.5521 29.0268 73.5778 22.3193V22.3189ZM95.3044 32.8529H103L96.2768 0.589123H89.1767C87.5753 0.589123 86.2295 1.52123 85.6324 2.95409L73.1437 32.8529H81.8838L83.6175 28.0334H94.2957L95.3048 32.8529H95.3044ZM86.0143 21.4219L90.3966 9.30572L92.914 21.4219H86.0138H86.0143ZM61.6523 41.7337H58.2702V44.8904H62.0531V45.8394H57.1308V37.0825H61.8591V38.0315H58.2702V40.7984H61.6519V41.7345L61.6523 41.7337ZM63.8005 36.6148H64.9399V45.839H63.8005V36.6148ZM67.815 42.9027C67.8408 44.4493 68.8129 45.0857 69.9652 45.0857C70.7819 45.0857 71.2869 44.9428 71.7021 44.7612L71.9089 45.5799C71.5073 45.7615 70.8081 45.9822 69.8099 45.9822C67.8802 45.9822 66.7275 44.6963 66.7275 42.799C66.7275 40.9025 67.8408 39.4208 69.6678 39.4208C71.7278 39.4208 72.2589 41.2144 72.2589 42.3704C72.2589 42.6041 72.2456 42.7727 72.2195 42.9031H67.815V42.9027ZM71.1573 42.0844C71.1706 41.3701 70.8596 40.2395 69.5769 40.2395C68.4109 40.2395 67.9184 41.2919 67.8275 42.0844H71.1573ZM78.4615 45.6183C78.1637 45.7615 77.5027 45.9827 76.661 45.9827C74.7695 45.9827 73.5388 44.6963 73.5388 42.7731C73.5388 40.8371 74.8597 39.4212 76.9068 39.4212C77.5803 39.4212 78.1762 39.5895 78.4872 39.7589L78.2289 40.6293C77.9557 40.4865 77.5284 40.3299 76.9068 40.3299C75.4684 40.3299 74.6919 41.4085 74.6919 42.7086C74.6919 44.1632 75.6245 45.0598 76.8682 45.0598C77.5159 45.0598 77.9432 44.9041 78.2671 44.7612L78.4615 45.6183ZM81.6593 38.0436V39.5507H83.2912V40.4207H81.6593V43.8122C81.6593 44.5926 81.8798 45.0336 82.5143 45.0336C82.8249 45.0336 83.0067 45.0082 83.1753 44.9553L83.2272 45.8269C83.0067 45.9044 82.6571 45.9822 82.2165 45.9822C81.685 45.9822 81.2573 45.8003 80.9858 45.5021C80.6748 45.1506 80.5452 44.5926 80.5452 43.8517V40.4207H79.5731V39.5507H80.5452V38.3818L81.6597 38.044L81.6593 38.0436ZM84.8833 41.513C84.8833 40.7721 84.8696 40.1358 84.8314 39.5507H85.8292L85.8815 40.7976H85.9193C86.205 39.9538 86.9038 39.4208 87.6679 39.4208C87.785 39.4208 87.8759 39.4341 87.9797 39.4466V40.5256C87.863 40.499 87.7467 40.499 87.5902 40.499C86.788 40.499 86.217 41.0966 86.0621 41.9548C86.0354 42.1311 86.0224 42.3092 86.0231 42.4875V45.8398H84.8833V41.513ZM94.9865 42.6428C94.9865 44.9686 93.3667 45.9822 91.8643 45.9822C90.1797 45.9822 88.8588 44.7346 88.8588 42.7473C88.8588 40.6551 90.2449 39.4212 91.9681 39.4212C93.7686 39.4212 94.9865 40.7326 94.9865 42.6432V42.6428ZM90.0244 42.7082C90.0244 44.0854 90.8017 45.1252 91.9158 45.1252C93.0046 45.1252 93.8201 44.0979 93.8201 42.6819C93.8201 41.6167 93.289 40.2778 91.9416 40.2778C90.6078 40.2778 90.0244 41.5259 90.0244 42.7082ZM96.7335 41.2527C96.7335 40.5906 96.7198 40.0704 96.6812 39.5511H97.6919L97.7567 40.5906H97.7824C98.0934 40.0055 98.8188 39.4212 99.8553 39.4212C100.723 39.4212 102.071 39.9409 102.071 42.0969V45.8394H100.931V42.2143C100.931 41.2015 100.555 40.3561 99.4799 40.3561C98.7412 40.3561 98.1578 40.8892 97.9514 41.5255C97.8991 41.6687 97.8733 41.8632 97.8733 42.0585V45.8394H96.7335V41.2527Z" fill="#1A1F71"/>
</svg>
