<svg width="99" height="75" viewBox="0 0 99 75" fill="none" xmlns="http://www.w3.org/2000/svg">
<circle cx="28" cy="25" r="25" fill="#EB001B"/>
<circle cx="64" cy="25" r="25" fill="#F79E1B" fill-opacity="0.9"/>
<path d="M12.096 62.36C12.7787 62.36 13.3813 62.4933 13.904 62.76C14.4373 63.0267 14.8533 63.4373 15.152 63.992C15.4507 64.536 15.6 65.24 15.6 66.104V71H13.6V66.36C13.6 65.6027 13.4347 65.0373 13.104 64.664C12.7733 64.2907 12.2987 64.104 11.68 64.104C11.2427 64.104 10.8533 64.2 10.512 64.392C10.1813 64.584 9.92 64.8667 9.728 65.24C9.54667 65.6133 9.456 66.088 9.456 66.664V71H7.456V66.36C7.456 65.6027 7.29067 65.0373 6.96 64.664C6.62933 64.2907 6.15467 64.104 5.536 64.104C5.09867 64.104 4.70933 64.2 4.368 64.392C4.03733 64.584 3.776 64.8667 3.584 65.24C3.40267 65.6133 3.312 66.088 3.312 66.664V71H1.312V62.456H3.216V64.728L2.88 64.056C3.168 63.5013 3.584 63.08 4.128 62.792C4.68267 62.504 5.312 62.36 6.016 62.36C6.816 62.36 7.50933 62.5573 8.096 62.952C8.69333 63.3467 9.088 63.944 9.28 64.744L8.496 64.472C8.77333 63.832 9.232 63.32 9.872 62.936C10.512 62.552 11.2533 62.36 12.096 62.36ZM23.4198 71V69.272L23.3078 68.904V65.88C23.3078 65.2933 23.1318 64.84 22.7798 64.52C22.4278 64.1893 21.8944 64.024 21.1798 64.024C20.6998 64.024 20.2251 64.0987 19.7558 64.248C19.2971 64.3973 18.9078 64.6053 18.5878 64.872L17.8038 63.416C18.2624 63.064 18.8064 62.8027 19.4358 62.632C20.0758 62.4507 20.7371 62.36 21.4198 62.36C22.6571 62.36 23.6118 62.6587 24.2838 63.256C24.9664 63.8427 25.3078 64.7547 25.3078 65.992V71H23.4198ZM20.7318 71.112C20.0918 71.112 19.5318 71.0053 19.0518 70.792C18.5718 70.568 18.1984 70.264 17.9318 69.88C17.6758 69.4853 17.5478 69.0427 17.5478 68.552C17.5478 68.072 17.6598 67.64 17.8838 67.256C18.1184 66.872 18.4971 66.568 19.0198 66.344C19.5424 66.12 20.2358 66.008 21.0998 66.008H23.5798V67.336H21.2438C20.5611 67.336 20.1024 67.448 19.8678 67.672C19.6331 67.8853 19.5158 68.152 19.5158 68.472C19.5158 68.8347 19.6598 69.1227 19.9478 69.336C20.2358 69.5493 20.6358 69.656 21.1478 69.656C21.6384 69.656 22.0758 69.544 22.4598 69.32C22.8544 69.096 23.1371 68.7653 23.3078 68.328L23.6438 69.528C23.4518 70.0293 23.1051 70.4187 22.6038 70.696C22.1131 70.9733 21.4891 71.112 20.7318 71.112ZM30.5145 71.112C29.7998 71.112 29.1118 71.0213 28.4505 70.84C27.7998 70.648 27.2825 70.4187 26.8985 70.152L27.6665 68.632C28.0505 68.8773 28.5092 69.08 29.0425 69.24C29.5758 69.4 30.1092 69.48 30.6425 69.48C31.2718 69.48 31.7252 69.3947 32.0025 69.224C32.2905 69.0533 32.4345 68.824 32.4345 68.536C32.4345 68.3013 32.3385 68.1253 32.1465 68.008C31.9545 67.88 31.7038 67.784 31.3945 67.72C31.0852 67.656 30.7385 67.5973 30.3545 67.544C29.9812 67.4907 29.6025 67.4213 29.2185 67.336C28.8452 67.24 28.5038 67.1067 28.1945 66.936C27.8852 66.7547 27.6345 66.5147 27.4425 66.216C27.2505 65.9173 27.1545 65.5227 27.1545 65.032C27.1545 64.488 27.3092 64.0187 27.6185 63.624C27.9278 63.2187 28.3598 62.9093 28.9145 62.696C29.4798 62.472 30.1465 62.36 30.9145 62.36C31.4905 62.36 32.0718 62.424 32.6585 62.552C33.2452 62.68 33.7305 62.8613 34.1145 63.096L33.3465 64.616C32.9412 64.3707 32.5305 64.2053 32.1145 64.12C31.7092 64.024 31.3038 63.976 30.8985 63.976C30.2905 63.976 29.8372 64.0667 29.5385 64.248C29.2505 64.4293 29.1065 64.6587 29.1065 64.936C29.1065 65.192 29.2025 65.384 29.3945 65.512C29.5865 65.64 29.8372 65.7413 30.1465 65.816C30.4558 65.8907 30.7972 65.9547 31.1705 66.008C31.5545 66.0507 31.9332 66.12 32.3065 66.216C32.6798 66.312 33.0212 66.4453 33.3305 66.616C33.6505 66.776 33.9065 67.0053 34.0985 67.304C34.2905 67.6027 34.3865 67.992 34.3865 68.472C34.3865 69.0053 34.2265 69.4693 33.9065 69.864C33.5972 70.2587 33.1545 70.568 32.5785 70.792C32.0025 71.0053 31.3145 71.112 30.5145 71.112ZM39.3249 71.112C38.3862 71.112 37.6609 70.872 37.1489 70.392C36.6369 69.9013 36.3809 69.1813 36.3809 68.232V60.568H38.3809V68.184C38.3809 68.5893 38.4822 68.904 38.6849 69.128C38.8982 69.352 39.1915 69.464 39.5649 69.464C40.0129 69.464 40.3862 69.3467 40.6849 69.112L41.2449 70.536C41.0102 70.728 40.7222 70.872 40.3809 70.968C40.0395 71.064 39.6875 71.112 39.3249 71.112ZM34.9729 64.12V62.52H40.6689V64.12H34.9729ZM46.6249 71.112C45.6755 71.112 44.8435 70.9253 44.1289 70.552C43.4249 70.168 42.8755 69.6453 42.4809 68.984C42.0969 68.3227 41.9049 67.5707 41.9049 66.728C41.9049 65.8747 42.0915 65.1227 42.4649 64.472C42.8489 63.8107 43.3715 63.2933 44.0329 62.92C44.7049 62.5467 45.4675 62.36 46.3209 62.36C47.1529 62.36 47.8942 62.5413 48.5449 62.904C49.1955 63.2667 49.7075 63.7787 50.0809 64.44C50.4542 65.1013 50.6409 65.88 50.6409 66.776C50.6409 66.8613 50.6355 66.9573 50.6249 67.064C50.6249 67.1707 50.6195 67.272 50.6089 67.368H43.4889V66.04H49.5529L48.7689 66.456C48.7795 65.9653 48.6782 65.5333 48.4649 65.16C48.2515 64.7867 47.9582 64.4933 47.5849 64.28C47.2222 64.0667 46.8009 63.96 46.3209 63.96C45.8302 63.96 45.3982 64.0667 45.0249 64.28C44.6622 64.4933 44.3742 64.792 44.1609 65.176C43.9582 65.5493 43.8569 65.992 43.8569 66.504V66.824C43.8569 67.336 43.9742 67.7893 44.2089 68.184C44.4435 68.5787 44.7742 68.8827 45.2009 69.096C45.6275 69.3093 46.1182 69.416 46.6729 69.416C47.1529 69.416 47.5849 69.3413 47.9689 69.192C48.3529 69.0427 48.6942 68.808 48.9929 68.488L50.0649 69.72C49.6809 70.168 49.1955 70.5147 48.6089 70.76C48.0329 70.9947 47.3715 71.112 46.6249 71.112ZM52.562 71V62.456H54.466V64.808L54.242 64.12C54.498 63.544 54.898 63.1067 55.442 62.808C55.9967 62.5093 56.6847 62.36 57.506 62.36V64.264C57.4207 64.2427 57.3407 64.232 57.266 64.232C57.1913 64.2213 57.1167 64.216 57.042 64.216C56.2847 64.216 55.682 64.44 55.234 64.888C54.786 65.3253 54.562 65.9813 54.562 66.856V71H52.562ZM63.0445 71.112C62.1485 71.112 61.3485 70.9253 60.6445 70.552C59.9512 70.168 59.4072 69.6453 59.0125 68.984C58.6178 68.3227 58.4205 67.5707 58.4205 66.728C58.4205 65.8747 58.6178 65.1227 59.0125 64.472C59.4072 63.8107 59.9512 63.2933 60.6445 62.92C61.3485 62.5467 62.1485 62.36 63.0445 62.36C63.8765 62.36 64.6072 62.5307 65.2365 62.872C65.8765 63.2027 66.3618 63.6933 66.6925 64.344L65.1565 65.24C64.9005 64.8347 64.5858 64.536 64.2125 64.344C63.8498 64.152 63.4552 64.056 63.0285 64.056C62.5378 64.056 62.0952 64.1627 61.7005 64.376C61.3058 64.5893 60.9965 64.8987 60.7725 65.304C60.5485 65.6987 60.4365 66.1733 60.4365 66.728C60.4365 67.2827 60.5485 67.7627 60.7725 68.168C60.9965 68.5627 61.3058 68.8667 61.7005 69.08C62.0952 69.2933 62.5378 69.4 63.0285 69.4C63.4552 69.4 63.8498 69.304 64.2125 69.112C64.5858 68.92 64.9005 68.6213 65.1565 68.216L66.6925 69.112C66.3618 69.752 65.8765 70.248 65.2365 70.6C64.6072 70.9413 63.8765 71.112 63.0445 71.112ZM73.6854 71V69.272L73.5734 68.904V65.88C73.5734 65.2933 73.3974 64.84 73.0454 64.52C72.6934 64.1893 72.16 64.024 71.4454 64.024C70.9654 64.024 70.4907 64.0987 70.0214 64.248C69.5627 64.3973 69.1734 64.6053 68.8534 64.872L68.0694 63.416C68.528 63.064 69.072 62.8027 69.7014 62.632C70.3414 62.4507 71.0027 62.36 71.6854 62.36C72.9227 62.36 73.8774 62.6587 74.5494 63.256C75.232 63.8427 75.5734 64.7547 75.5734 65.992V71H73.6854ZM70.9974 71.112C70.3574 71.112 69.7974 71.0053 69.3174 70.792C68.8374 70.568 68.464 70.264 68.1974 69.88C67.9414 69.4853 67.8134 69.0427 67.8134 68.552C67.8134 68.072 67.9254 67.64 68.1494 67.256C68.384 66.872 68.7627 66.568 69.2854 66.344C69.808 66.12 70.5014 66.008 71.3654 66.008H73.8454V67.336H71.5094C70.8267 67.336 70.368 67.448 70.1334 67.672C69.8987 67.8853 69.7814 68.152 69.7814 68.472C69.7814 68.8347 69.9254 69.1227 70.2134 69.336C70.5014 69.5493 70.9014 69.656 71.4134 69.656C71.904 69.656 72.3414 69.544 72.7254 69.32C73.12 69.096 73.4027 68.7653 73.5734 68.328L73.9094 69.528C73.7174 70.0293 73.3707 70.4187 72.8694 70.696C72.3787 70.9733 71.7547 71.112 70.9974 71.112ZM78.1401 71V62.456H80.0441V64.808L79.8201 64.12C80.0761 63.544 80.4761 63.1067 81.0201 62.808C81.5748 62.5093 82.2628 62.36 83.0841 62.36V64.264C82.9988 64.2427 82.9188 64.232 82.8441 64.232C82.7695 64.2213 82.6948 64.216 82.6201 64.216C81.8628 64.216 81.2601 64.44 80.8121 64.888C80.3641 65.3253 80.1401 65.9813 80.1401 66.856V71H78.1401ZM88.3186 71.112C87.4973 71.112 86.756 70.9307 86.0946 70.568C85.444 70.1947 84.932 69.6827 84.5586 69.032C84.1853 68.3813 83.9986 67.6133 83.9986 66.728C83.9986 65.8427 84.1853 65.0747 84.5586 64.424C84.932 63.7733 85.444 63.2667 86.0946 62.904C86.756 62.5413 87.4973 62.36 88.3186 62.36C89.0333 62.36 89.6733 62.52 90.2386 62.84C90.804 63.1493 91.252 63.624 91.5826 64.264C91.9133 64.904 92.0786 65.7253 92.0786 66.728C92.0786 67.72 91.9186 68.5413 91.5986 69.192C91.2786 69.832 90.836 70.312 90.2706 70.632C89.7053 70.952 89.0546 71.112 88.3186 71.112ZM88.5586 69.4C89.0386 69.4 89.4653 69.2933 89.8386 69.08C90.2226 68.8667 90.5266 68.5573 90.7506 68.152C90.9853 67.7467 91.1026 67.272 91.1026 66.728C91.1026 66.1733 90.9853 65.6987 90.7506 65.304C90.5266 64.8987 90.2226 64.5893 89.8386 64.376C89.4653 64.1627 89.0386 64.056 88.5586 64.056C88.0786 64.056 87.6466 64.1627 87.2626 64.376C86.8893 64.5893 86.5853 64.8987 86.3506 65.304C86.1266 65.6987 86.0146 66.1733 86.0146 66.728C86.0146 67.272 86.1266 67.7467 86.3506 68.152C86.5853 68.5573 86.8893 68.8667 87.2626 69.08C87.6466 69.2933 88.0786 69.4 88.5586 69.4ZM91.1506 71V68.984L91.2306 66.712L91.0706 64.44V59.128H93.0546V71H91.1506ZM96.327 71.112C95.9643 71.112 95.655 70.9893 95.399 70.744C95.143 70.488 95.015 70.168 95.015 69.784C95.015 69.3787 95.143 69.0587 95.399 68.824C95.655 68.5787 95.9643 68.456 96.327 68.456C96.6897 68.456 96.999 68.5787 97.255 68.824C97.511 69.0587 97.639 69.3787 97.639 69.784C97.639 70.168 97.511 70.488 97.255 70.744C96.999 70.9893 96.6897 71.112 96.327 71.112Z" fill="#323232"/>
</svg>
