<svg width="113" height="46" viewBox="0 0 113 46" fill="none" xmlns="http://www.w3.org/2000/svg">
<path d="M1.692 17V4.4H3.618L9.126 13.598H8.118L13.536 4.4H15.462L15.48 17H13.266L13.248 7.874H13.716L9.108 15.56H8.064L3.384 7.874H3.924V17H1.692ZM24.5894 17V15.056L24.4634 14.642V11.24C24.4634 10.58 24.2654 10.07 23.8694 9.71C23.4734 9.338 22.8734 9.152 22.0694 9.152C21.5294 9.152 20.9954 9.236 20.4674 9.404C19.9514 9.572 19.5134 9.806 19.1534 10.106L18.2714 8.468C18.7874 8.072 19.3994 7.778 20.1074 7.586C20.8274 7.382 21.5714 7.28 22.3394 7.28C23.7314 7.28 24.8054 7.616 25.5614 8.288C26.3294 8.948 26.7134 9.974 26.7134 11.366V17H24.5894ZM21.5654 17.126C20.8454 17.126 20.2154 17.006 19.6754 16.766C19.1354 16.514 18.7154 16.172 18.4154 15.74C18.1274 15.296 17.9834 14.798 17.9834 14.246C17.9834 13.706 18.1094 13.22 18.3614 12.788C18.6254 12.356 19.0514 12.014 19.6394 11.762C20.2274 11.51 21.0074 11.384 21.9794 11.384H24.7694V12.878H22.1414C21.3734 12.878 20.8574 13.004 20.5934 13.256C20.3294 13.496 20.1974 13.796 20.1974 14.156C20.1974 14.564 20.3594 14.888 20.6834 15.128C21.0074 15.368 21.4574 15.488 22.0334 15.488C22.5854 15.488 23.0774 15.362 23.5094 15.11C23.9534 14.858 24.2714 14.486 24.4634 13.994L24.8414 15.344C24.6254 15.908 24.2354 16.346 23.6714 16.658C23.1194 16.97 22.4174 17.126 21.5654 17.126ZM32.571 17.126C31.767 17.126 30.993 17.024 30.249 16.82C29.517 16.604 28.935 16.346 28.503 16.046L29.367 14.336C29.799 14.612 30.315 14.84 30.915 15.02C31.515 15.2 32.115 15.29 32.715 15.29C33.423 15.29 33.933 15.194 34.245 15.002C34.569 14.81 34.731 14.552 34.731 14.228C34.731 13.964 34.623 13.766 34.407 13.634C34.191 13.49 33.909 13.382 33.561 13.31C33.213 13.238 32.823 13.172 32.391 13.112C31.971 13.052 31.545 12.974 31.113 12.878C30.693 12.77 30.309 12.62 29.961 12.428C29.613 12.224 29.331 11.954 29.115 11.618C28.899 11.282 28.791 10.838 28.791 10.286C28.791 9.674 28.965 9.146 29.313 8.702C29.661 8.246 30.147 7.898 30.771 7.658C31.407 7.406 32.157 7.28 33.021 7.28C33.669 7.28 34.323 7.352 34.983 7.496C35.643 7.64 36.189 7.844 36.621 8.108L35.757 9.818C35.301 9.542 34.839 9.356 34.371 9.26C33.915 9.152 33.459 9.098 33.003 9.098C32.319 9.098 31.809 9.2 31.473 9.404C31.149 9.608 30.987 9.866 30.987 10.178C30.987 10.466 31.095 10.682 31.311 10.826C31.527 10.97 31.809 11.084 32.157 11.168C32.505 11.252 32.889 11.324 33.309 11.384C33.741 11.432 34.167 11.51 34.587 11.618C35.007 11.726 35.391 11.876 35.739 12.068C36.099 12.248 36.387 12.506 36.603 12.842C36.819 13.178 36.927 13.616 36.927 14.156C36.927 14.756 36.747 15.278 36.387 15.722C36.039 16.166 35.541 16.514 34.893 16.766C34.245 17.006 33.471 17.126 32.571 17.126ZM42.4827 17.126C41.4267 17.126 40.6107 16.856 40.0347 16.316C39.4587 15.764 39.1707 14.954 39.1707 13.886V5.264H41.4207V13.832C41.4207 14.288 41.5347 14.642 41.7627 14.894C42.0027 15.146 42.3327 15.272 42.7527 15.272C43.2567 15.272 43.6767 15.14 44.0127 14.876L44.6427 16.478C44.3787 16.694 44.0547 16.856 43.6707 16.964C43.2867 17.072 42.8907 17.126 42.4827 17.126ZM37.5867 9.26V7.46H43.9947V9.26H37.5867ZM50.6952 17.126C49.6272 17.126 48.6912 16.916 47.8872 16.496C47.0952 16.064 46.4772 15.476 46.0332 14.732C45.6012 13.988 45.3852 13.142 45.3852 12.194C45.3852 11.234 45.5952 10.388 46.0152 9.656C46.4472 8.912 47.0352 8.33 47.7792 7.91C48.5352 7.49 49.3932 7.28 50.3532 7.28C51.2892 7.28 52.1232 7.484 52.8552 7.892C53.5872 8.3 54.1632 8.876 54.5832 9.62C55.0032 10.364 55.2132 11.24 55.2132 12.248C55.2132 12.344 55.2072 12.452 55.1952 12.572C55.1952 12.692 55.1892 12.806 55.1772 12.914H47.1672V11.42H53.9892L53.1072 11.888C53.1192 11.336 53.0052 10.85 52.7652 10.43C52.5252 10.01 52.1952 9.68 51.7752 9.44C51.3672 9.2 50.8932 9.08 50.3532 9.08C49.8012 9.08 49.3152 9.2 48.8952 9.44C48.4872 9.68 48.1632 10.016 47.9232 10.448C47.6952 10.868 47.5812 11.366 47.5812 11.942V12.302C47.5812 12.878 47.7132 13.388 47.9772 13.832C48.2412 14.276 48.6132 14.618 49.0932 14.858C49.5732 15.098 50.1252 15.218 50.7492 15.218C51.2892 15.218 51.7752 15.134 52.2072 14.966C52.6392 14.798 53.0232 14.534 53.3592 14.174L54.5652 15.56C54.1332 16.064 53.5872 16.454 52.9272 16.73C52.2792 16.994 51.5352 17.126 50.6952 17.126ZM57.3744 17V7.388H59.5164V10.034L59.2644 9.26C59.5524 8.612 60.0024 8.12 60.6144 7.784C61.2384 7.448 62.0124 7.28 62.9364 7.28V9.422C62.8404 9.398 62.7504 9.386 62.6664 9.386C62.5824 9.374 62.4984 9.368 62.4144 9.368C61.5624 9.368 60.8844 9.62 60.3804 10.124C59.8764 10.616 59.6244 11.354 59.6244 12.338V17H57.3744ZM69.1673 17.126C68.1593 17.126 67.2593 16.916 66.4673 16.496C65.6873 16.064 65.0753 15.476 64.6313 14.732C64.1873 13.988 63.9653 13.142 63.9653 12.194C63.9653 11.234 64.1873 10.388 64.6313 9.656C65.0753 8.912 65.6873 8.33 66.4673 7.91C67.2593 7.49 68.1593 7.28 69.1673 7.28C70.1033 7.28 70.9253 7.472 71.6333 7.856C72.3533 8.228 72.8993 8.78 73.2713 9.512L71.5433 10.52C71.2553 10.064 70.9013 9.728 70.4813 9.512C70.0733 9.296 69.6293 9.188 69.1493 9.188C68.5973 9.188 68.0993 9.308 67.6553 9.548C67.2113 9.788 66.8633 10.136 66.6113 10.592C66.3593 11.036 66.2333 11.57 66.2333 12.194C66.2333 12.818 66.3593 13.358 66.6113 13.814C66.8633 14.258 67.2113 14.6 67.6553 14.84C68.0993 15.08 68.5973 15.2 69.1493 15.2C69.6293 15.2 70.0733 15.092 70.4813 14.876C70.9013 14.66 71.2553 14.324 71.5433 13.868L73.2713 14.876C72.8993 15.596 72.3533 16.154 71.6333 16.55C70.9253 16.934 70.1033 17.126 69.1673 17.126ZM81.1382 17V15.056L81.0122 14.642V11.24C81.0122 10.58 80.8142 10.07 80.4182 9.71C80.0222 9.338 79.4222 9.152 78.6182 9.152C78.0782 9.152 77.5442 9.236 77.0162 9.404C76.5002 9.572 76.0622 9.806 75.7022 10.106L74.8202 8.468C75.3362 8.072 75.9482 7.778 76.6562 7.586C77.3762 7.382 78.1202 7.28 78.8882 7.28C80.2802 7.28 81.3542 7.616 82.1102 8.288C82.8782 8.948 83.2622 9.974 83.2622 11.366V17H81.1382ZM78.1142 17.126C77.3942 17.126 76.7642 17.006 76.2242 16.766C75.6842 16.514 75.2642 16.172 74.9642 15.74C74.6762 15.296 74.5322 14.798 74.5322 14.246C74.5322 13.706 74.6582 13.22 74.9102 12.788C75.1742 12.356 75.6002 12.014 76.1882 11.762C76.7762 11.51 77.5562 11.384 78.5282 11.384H81.3182V12.878H78.6902C77.9222 12.878 77.4062 13.004 77.1422 13.256C76.8782 13.496 76.7462 13.796 76.7462 14.156C76.7462 14.564 76.9082 14.888 77.2322 15.128C77.5562 15.368 78.0062 15.488 78.5822 15.488C79.1342 15.488 79.6262 15.362 80.0582 15.11C80.5022 14.858 80.8202 14.486 81.0122 13.994L81.3902 15.344C81.1742 15.908 80.7842 16.346 80.2202 16.658C79.6682 16.97 78.9662 17.126 78.1142 17.126ZM86.1498 17V7.388H88.2918V10.034L88.0398 9.26C88.3278 8.612 88.7778 8.12 89.3898 7.784C90.0138 7.448 90.7878 7.28 91.7118 7.28V9.422C91.6158 9.398 91.5258 9.386 91.4418 9.386C91.3578 9.374 91.2738 9.368 91.1898 9.368C90.3378 9.368 89.6598 9.62 89.1558 10.124C88.6518 10.616 88.3998 11.354 88.3998 12.338V17H86.1498ZM97.6006 17.126C96.6766 17.126 95.8426 16.922 95.0986 16.514C94.3666 16.094 93.7906 15.518 93.3706 14.786C92.9506 14.054 92.7406 13.19 92.7406 12.194C92.7406 11.198 92.9506 10.334 93.3706 9.602C93.7906 8.87 94.3666 8.3 95.0986 7.892C95.8426 7.484 96.6766 7.28 97.6006 7.28C98.4046 7.28 99.1246 7.46 99.7606 7.82C100.397 8.168 100.901 8.702 101.273 9.422C101.645 10.142 101.831 11.066 101.831 12.194C101.831 13.31 101.651 14.234 101.291 14.966C100.931 15.686 100.433 16.226 99.7966 16.586C99.1606 16.946 98.4286 17.126 97.6006 17.126ZM97.8706 15.2C98.4106 15.2 98.8906 15.08 99.3106 14.84C99.7426 14.6 100.085 14.252 100.337 13.796C100.601 13.34 100.733 12.806 100.733 12.194C100.733 11.57 100.601 11.036 100.337 10.592C100.085 10.136 99.7426 9.788 99.3106 9.548C98.8906 9.308 98.4106 9.188 97.8706 9.188C97.3306 9.188 96.8446 9.308 96.4126 9.548C95.9926 9.788 95.6506 10.136 95.3866 10.592C95.1346 11.036 95.0086 11.57 95.0086 12.194C95.0086 12.806 95.1346 13.34 95.3866 13.796C95.6506 14.252 95.9926 14.6 96.4126 14.84C96.8446 15.08 97.3306 15.2 97.8706 15.2ZM100.787 17V14.732L100.877 12.176L100.697 9.62V3.644H102.929V17H100.787Z" fill="#EB001B"/>
<path d="M6.598 41.18C5.614 41.18 4.672 41.042 3.772 40.766C2.872 40.478 2.158 40.112 1.63 39.668L2.44 37.85C2.944 38.246 3.568 38.576 4.312 38.84C5.056 39.104 5.818 39.236 6.598 39.236C7.258 39.236 7.792 39.164 8.2 39.02C8.608 38.876 8.908 38.684 9.1 38.444C9.292 38.192 9.388 37.91 9.388 37.598C9.388 37.214 9.25 36.908 8.974 36.68C8.698 36.44 8.338 36.254 7.894 36.122C7.462 35.978 6.976 35.846 6.436 35.726C5.908 35.606 5.374 35.468 4.834 35.312C4.306 35.144 3.82 34.934 3.376 34.682C2.944 34.418 2.59 34.07 2.314 33.638C2.038 33.206 1.9 32.654 1.9 31.982C1.9 31.298 2.08 30.674 2.44 30.11C2.812 29.534 3.37 29.078 4.114 28.742C4.87 28.394 5.824 28.22 6.976 28.22C7.732 28.22 8.482 28.316 9.226 28.508C9.97 28.7 10.618 28.976 11.17 29.336L10.432 31.154C9.868 30.818 9.286 30.572 8.686 30.416C8.086 30.248 7.51 30.164 6.958 30.164C6.31 30.164 5.782 30.242 5.374 30.398C4.978 30.554 4.684 30.758 4.492 31.01C4.312 31.262 4.222 31.55 4.222 31.874C4.222 32.258 4.354 32.57 4.618 32.81C4.894 33.038 5.248 33.218 5.68 33.35C6.124 33.482 6.616 33.614 7.156 33.746C7.696 33.866 8.23 34.004 8.758 34.16C9.298 34.316 9.784 34.52 10.216 34.772C10.66 35.024 11.014 35.366 11.278 35.798C11.554 36.23 11.692 36.776 11.692 37.436C11.692 38.108 11.506 38.732 11.134 39.308C10.774 39.872 10.216 40.328 9.46 40.676C8.704 41.012 7.75 41.18 6.598 41.18ZM18.3143 41.126C17.2463 41.126 16.3103 40.916 15.5063 40.496C14.7143 40.064 14.0963 39.476 13.6523 38.732C13.2203 37.988 13.0043 37.142 13.0043 36.194C13.0043 35.234 13.2143 34.388 13.6343 33.656C14.0663 32.912 14.6543 32.33 15.3983 31.91C16.1543 31.49 17.0123 31.28 17.9723 31.28C18.9083 31.28 19.7423 31.484 20.4743 31.892C21.2063 32.3 21.7823 32.876 22.2023 33.62C22.6223 34.364 22.8323 35.24 22.8323 36.248C22.8323 36.344 22.8263 36.452 22.8143 36.572C22.8143 36.692 22.8083 36.806 22.7963 36.914H14.7863V35.42H21.6083L20.7263 35.888C20.7383 35.336 20.6243 34.85 20.3843 34.43C20.1443 34.01 19.8143 33.68 19.3943 33.44C18.9863 33.2 18.5123 33.08 17.9723 33.08C17.4203 33.08 16.9343 33.2 16.5143 33.44C16.1063 33.68 15.7823 34.016 15.5423 34.448C15.3143 34.868 15.2003 35.366 15.2003 35.942V36.302C15.2003 36.878 15.3323 37.388 15.5963 37.832C15.8603 38.276 16.2323 38.618 16.7123 38.858C17.1923 39.098 17.7443 39.218 18.3683 39.218C18.9083 39.218 19.3943 39.134 19.8263 38.966C20.2583 38.798 20.6423 38.534 20.9783 38.174L22.1843 39.56C21.7523 40.064 21.2063 40.454 20.5463 40.73C19.8983 40.994 19.1543 41.126 18.3143 41.126ZM29.4036 41.126C28.3956 41.126 27.4956 40.916 26.7036 40.496C25.9236 40.064 25.3116 39.476 24.8676 38.732C24.4236 37.988 24.2016 37.142 24.2016 36.194C24.2016 35.234 24.4236 34.388 24.8676 33.656C25.3116 32.912 25.9236 32.33 26.7036 31.91C27.4956 31.49 28.3956 31.28 29.4036 31.28C30.3396 31.28 31.1616 31.472 31.8696 31.856C32.5896 32.228 33.1356 32.78 33.5076 33.512L31.7796 34.52C31.4916 34.064 31.1376 33.728 30.7176 33.512C30.3096 33.296 29.8656 33.188 29.3856 33.188C28.8336 33.188 28.3356 33.308 27.8916 33.548C27.4476 33.788 27.0996 34.136 26.8476 34.592C26.5956 35.036 26.4696 35.57 26.4696 36.194C26.4696 36.818 26.5956 37.358 26.8476 37.814C27.0996 38.258 27.4476 38.6 27.8916 38.84C28.3356 39.08 28.8336 39.2 29.3856 39.2C29.8656 39.2 30.3096 39.092 30.7176 38.876C31.1376 38.66 31.4916 38.324 31.7796 37.868L33.5076 38.876C33.1356 39.596 32.5896 40.154 31.8696 40.55C31.1616 40.934 30.3396 41.126 29.4036 41.126ZM39.5206 41.126C38.7046 41.126 37.9846 40.976 37.3606 40.676C36.7366 40.364 36.2506 39.896 35.9026 39.272C35.5546 38.636 35.3806 37.838 35.3806 36.878V31.388H37.6306V36.572C37.6306 37.436 37.8226 38.084 38.2066 38.516C38.6026 38.936 39.1606 39.146 39.8806 39.146C40.4086 39.146 40.8646 39.038 41.2486 38.822C41.6446 38.606 41.9506 38.282 42.1666 37.85C42.3946 37.418 42.5086 36.884 42.5086 36.248V31.388H44.7586V41H42.6166V38.408L42.9946 39.2C42.6706 39.824 42.1966 40.304 41.5726 40.64C40.9486 40.964 40.2646 41.126 39.5206 41.126ZM47.7045 41V31.388H49.8465V34.034L49.5945 33.26C49.8825 32.612 50.3325 32.12 50.9445 31.784C51.5685 31.448 52.3425 31.28 53.2665 31.28V33.422C53.1705 33.398 53.0805 33.386 52.9965 33.386C52.9125 33.374 52.8285 33.368 52.7445 33.368C51.8925 33.368 51.2145 33.62 50.7105 34.124C50.2065 34.616 49.9545 35.354 49.9545 36.338V41H47.7045ZM59.6053 41.126C58.5373 41.126 57.6013 40.916 56.7973 40.496C56.0053 40.064 55.3873 39.476 54.9433 38.732C54.5113 37.988 54.2953 37.142 54.2953 36.194C54.2953 35.234 54.5053 34.388 54.9253 33.656C55.3573 32.912 55.9453 32.33 56.6893 31.91C57.4453 31.49 58.3033 31.28 59.2633 31.28C60.1993 31.28 61.0333 31.484 61.7653 31.892C62.4973 32.3 63.0733 32.876 63.4933 33.62C63.9133 34.364 64.1233 35.24 64.1233 36.248C64.1233 36.344 64.1173 36.452 64.1053 36.572C64.1053 36.692 64.0993 36.806 64.0873 36.914H56.0773V35.42H62.8993L62.0173 35.888C62.0293 35.336 61.9153 34.85 61.6753 34.43C61.4353 34.01 61.1053 33.68 60.6853 33.44C60.2773 33.2 59.8033 33.08 59.2633 33.08C58.7113 33.08 58.2253 33.2 57.8053 33.44C57.3973 33.68 57.0733 34.016 56.8333 34.448C56.6053 34.868 56.4913 35.366 56.4913 35.942V36.302C56.4913 36.878 56.6233 37.388 56.8873 37.832C57.1513 38.276 57.5233 38.618 58.0033 38.858C58.4833 39.098 59.0353 39.218 59.6593 39.218C60.1993 39.218 60.6853 39.134 61.1173 38.966C61.5493 38.798 61.9333 38.534 62.2693 38.174L63.4753 39.56C63.0433 40.064 62.4973 40.454 61.8373 40.73C61.1893 40.994 60.4453 41.126 59.6053 41.126ZM72.3326 41.18C71.3726 41.18 70.4786 41.024 69.6506 40.712C68.8346 40.388 68.1206 39.938 67.5086 39.362C66.9086 38.774 66.4406 38.084 66.1046 37.292C65.7686 36.5 65.6006 35.636 65.6006 34.7C65.6006 33.764 65.7686 32.9 66.1046 32.108C66.4406 31.316 66.9146 30.632 67.5266 30.056C68.1386 29.468 68.8526 29.018 69.6686 28.706C70.4846 28.382 71.3786 28.22 72.3506 28.22C73.3826 28.22 74.3246 28.4 75.1766 28.76C76.0286 29.108 76.7486 29.63 77.3366 30.326L75.8246 31.748C75.3686 31.256 74.8586 30.89 74.2946 30.65C73.7306 30.398 73.1186 30.272 72.4586 30.272C71.7986 30.272 71.1926 30.38 70.6406 30.596C70.1006 30.812 69.6266 31.118 69.2186 31.514C68.8226 31.91 68.5106 32.378 68.2826 32.918C68.0666 33.458 67.9586 34.052 67.9586 34.7C67.9586 35.348 68.0666 35.942 68.2826 36.482C68.5106 37.022 68.8226 37.49 69.2186 37.886C69.6266 38.282 70.1006 38.588 70.6406 38.804C71.1926 39.02 71.7986 39.128 72.4586 39.128C73.1186 39.128 73.7306 39.008 74.2946 38.768C74.8586 38.516 75.3686 38.138 75.8246 37.634L77.3366 39.074C76.7486 39.758 76.0286 40.28 75.1766 40.64C74.3246 41 73.3766 41.18 72.3326 41.18ZM83.3136 41.126C82.3296 41.126 81.4536 40.916 80.6856 40.496C79.9176 40.064 79.3116 39.476 78.8676 38.732C78.4236 37.988 78.2016 37.142 78.2016 36.194C78.2016 35.234 78.4236 34.388 78.8676 33.656C79.3116 32.912 79.9176 32.33 80.6856 31.91C81.4536 31.49 82.3296 31.28 83.3136 31.28C84.3096 31.28 85.1916 31.49 85.9596 31.91C86.7396 32.33 87.3456 32.906 87.7776 33.638C88.2216 34.37 88.4436 35.222 88.4436 36.194C88.4436 37.142 88.2216 37.988 87.7776 38.732C87.3456 39.476 86.7396 40.064 85.9596 40.496C85.1916 40.916 84.3096 41.126 83.3136 41.126ZM83.3136 39.2C83.8656 39.2 84.3576 39.08 84.7896 38.84C85.2216 38.6 85.5576 38.252 85.7976 37.796C86.0496 37.34 86.1756 36.806 86.1756 36.194C86.1756 35.57 86.0496 35.036 85.7976 34.592C85.5576 34.136 85.2216 33.788 84.7896 33.548C84.3576 33.308 83.8716 33.188 83.3316 33.188C82.7796 33.188 82.2876 33.308 81.8556 33.548C81.4356 33.788 81.0996 34.136 80.8476 34.592C80.5956 35.036 80.4696 35.57 80.4696 36.194C80.4696 36.806 80.5956 37.34 80.8476 37.796C81.0996 38.252 81.4356 38.6 81.8556 38.84C82.2876 39.08 82.7736 39.2 83.3136 39.2ZM94.6631 41.126C93.7391 41.126 92.9051 40.922 92.1611 40.514C91.4291 40.094 90.8531 39.518 90.4331 38.786C90.0131 38.054 89.8031 37.19 89.8031 36.194C89.8031 35.198 90.0131 34.334 90.4331 33.602C90.8531 32.87 91.4291 32.3 92.1611 31.892C92.9051 31.484 93.7391 31.28 94.6631 31.28C95.4671 31.28 96.1871 31.46 96.8231 31.82C97.4591 32.168 97.9631 32.702 98.3351 33.422C98.7071 34.142 98.8931 35.066 98.8931 36.194C98.8931 37.31 98.7131 38.234 98.3531 38.966C97.9931 39.686 97.4951 40.226 96.8591 40.586C96.2231 40.946 95.4911 41.126 94.6631 41.126ZM94.9331 39.2C95.4731 39.2 95.9531 39.08 96.3731 38.84C96.8051 38.6 97.1471 38.252 97.3991 37.796C97.6631 37.34 97.7951 36.806 97.7951 36.194C97.7951 35.57 97.6631 35.036 97.3991 34.592C97.1471 34.136 96.8051 33.788 96.3731 33.548C95.9531 33.308 95.4731 33.188 94.9331 33.188C94.3931 33.188 93.9071 33.308 93.4751 33.548C93.0551 33.788 92.7131 34.136 92.4491 34.592C92.1971 35.036 92.0711 35.57 92.0711 36.194C92.0711 36.806 92.1971 37.34 92.4491 37.796C92.7131 38.252 93.0551 38.6 93.4751 38.84C93.9071 39.08 94.3931 39.2 94.9331 39.2ZM97.8491 41V38.732L97.9391 36.176L97.7591 33.62V27.644H99.9911V41H97.8491ZM107.471 41.126C106.403 41.126 105.467 40.916 104.663 40.496C103.871 40.064 103.253 39.476 102.809 38.732C102.377 37.988 102.161 37.142 102.161 36.194C102.161 35.234 102.371 34.388 102.791 33.656C103.223 32.912 103.811 32.33 104.555 31.91C105.311 31.49 106.169 31.28 107.129 31.28C108.065 31.28 108.899 31.484 109.631 31.892C110.363 32.3 110.939 32.876 111.359 33.62C111.779 34.364 111.989 35.24 111.989 36.248C111.989 36.344 111.983 36.452 111.971 36.572C111.971 36.692 111.965 36.806 111.953 36.914H103.943V35.42H110.765L109.883 35.888C109.895 35.336 109.781 34.85 109.541 34.43C109.301 34.01 108.971 33.68 108.551 33.44C108.143 33.2 107.669 33.08 107.129 33.08C106.577 33.08 106.091 33.2 105.671 33.44C105.263 33.68 104.939 34.016 104.699 34.448C104.471 34.868 104.357 35.366 104.357 35.942V36.302C104.357 36.878 104.489 37.388 104.753 37.832C105.017 38.276 105.389 38.618 105.869 38.858C106.349 39.098 106.901 39.218 107.525 39.218C108.065 39.218 108.551 39.134 108.983 38.966C109.415 38.798 109.799 38.534 110.135 38.174L111.341 39.56C110.909 40.064 110.363 40.454 109.703 40.73C109.055 40.994 108.311 41.126 107.471 41.126Z" fill="#F8A832"/>
</svg>
